{"accessors" : [{"bufferView" : 0, "byteOffset" : 0, "componentType" : 5123, "count" : 6, "type" : "SCALAR", "max" : [4], "min" : [0]}, {"bufferView" : 1, "byteOffset" : 0, "componentType" : 5126, "count" : 5, "type" : "VEC3", "max" : [30.330638885498047, 1.8773610591888428, -5.713486194610596], "min" : [29.473628997802734, 0.6868219971656799, -6.3999810218811035], "name" : "POSITION"}, {"bufferView" : 1, "byteOffset" : 12, "componentType" : 5126, "count" : 5, "type" : "VEC2", "max" : [0.9083330035209656, -1.0950000286102295], "min" : [0.5333330035209656, -1.4700000286102295], "name" : "TEXCOORD_0"}, {"bufferView" : 1, "byteOffset" : 20, "componentType" : 5126, "count" : 5, "type" : "VEC3", "max" : [-0.6251854300498962, -0, 0.7804818749427795], "min" : [-0.6251854300498962, -0, 0.7804818749427795], "name" : "NORMAL"}, {"bufferView" : 0, "byteOffset" : 12, "componentType" : 5123, "count" : 9, "type" : "SCALAR", "max" : [7], "min" : [0]}, {"bufferView" : 2, "byteOffset" : 0, "componentType" : 5126, "count" : 8, "type" : "VEC3", "max" : [7.686648845672607, 1.56700599193573, -11.805351257324219], "min" : [3.56787109375, 0.38685399293899536, -13.674612045288086], "name" : "POSITION"}, {"bufferView" : 2, "byteOffset" : 12, "componentType" : 5126, "count" : 8, "type" : "VEC2", "max" : [0.49423500895500183, -1.003872036933899], "min" : [0.30031299591064453, -1.2673109769821167], "name" : "TEXCOORD_0"}, {"bufferView" : 2, "byteOffset" : 20, "componentType" : 5126, "count" : 8, "type" : "VEC3", "max" : [-0.41329991817474365, -0, 0.9105997681617737], "min" : [-0.41329991817474365, -0, 0.9105997681617737], "name" : "NORMAL"}, {"bufferView" : 0, "byteOffset" : 32, "componentType" : 5123, "count" : 102, "type" : "SCALAR", "max" : [85], "min" : [0]}, {"bufferView" : 3, "byteOffset" : 0, "componentType" : 5126, "count" : 86, "type" : "VEC3", "max" : [232.57644653320312, 0.7461689710617065, 170.1416473388672], "min" : [-14.987377166748047, -1.5943390130996704, -0.04089299961924553], "name" : "POSITION"}, {"bufferView" : 3, "byteOffset" : 12, "componentType" : 5126, "count" : 86, "type" : "VEC2", "max" : [3.2489678859710693, -0.38192999362945557], "min" : [-1.9199609756469727, -4.689410209655762], "name" : "TEXCOORD_0"}, {"bufferView" : 3, "byteOffset" : 20, "componentType" : 5126, "count" : 86, "type" : "VEC3", "max" : [0.9104697704315186, 1.0000044107437134, 0.9104697704315186], "min" : [-0.9104697704315186, -1.0000044107437134, -0.9104697704315186], "name" : "NORMAL"}, {"bufferView" : 0, "byteOffset" : 236, "componentType" : 5123, "count" : 12849, "type" : "SCALAR", "max" : [11179], "min" : [0]}, {"bufferView" : 4, "byteOffset" : 0, "componentType" : 5126, "count" : 11180, "type" : "VEC3", "max" : [246.9418487548828, 27.007692337036133, 122.76841735839844], "min" : [-140.26953125, -0.01946599967777729, -69.56513977050781], "name" : "POSITION"}, {"bufferView" : 4, "byteOffset" : 12, "componentType" : 5126, "count" : 11180, "type" : "VEC2", "max" : [16.37421226501465, 4.544928073883057], "min" : [-5.75, -18.37421226501465], "name" : "TEXCOORD_0"}, {"bufferView" : 4, "byteOffset" : 20, "componentType" : 5126, "count" : 11180, "type" : "VEC3", "max" : [0.9998795986175537, 1.0000044107437134, 1.0000044107437134], "min" : [-0.9999324083328247, -1.0000044107437134, -0.9999439120292664], "name" : "NORMAL"}, {"bufferView" : 0, "byteOffset" : 25936, "componentType" : 5123, "count" : 35943, "type" : "SCALAR", "max" : [30486], "min" : [0]}, {"bufferView" : 5, "byteOffset" : 0, "componentType" : 5126, "count" : 30487, "type" : "VEC3", "max" : [256.35546875, 27.0097713470459, 178.3278350830078], "min" : [2.7314260005950928, -1.5739920139312744, -24.376617431640625], "name" : "POSITION"}, {"bufferView" : 5, "byteOffset" : 12, "componentType" : 5126, "count" : 30487, "type" : "VEC2", "max" : [6.836019039154053, 4.543646812438965], "min" : [-6.222750186920166, -4.8921918869018555], "name" : "TEXCOORD_0"}, {"bufferView" : 5, "byteOffset" : 20, "componentType" : 5126, "count" : 30487, "type" : "VEC3", "max" : [0.999951183795929, 1.0000044107437134, 0.9999955892562866], "min" : [-0.9998827576637268, -1.0000044107437134, -0.9995267987251282], "name" : "NORMAL"}, {"bufferView" : 0, "byteOffset" : 97824, "componentType" : 5123, "count" : 288, "type" : "SCALAR", "max" : [239], "min" : [0]}, {"bufferView" : 6, "byteOffset" : 0, "componentType" : 5126, "count" : 240, "type" : "VEC3", "max" : [242.68408203125, 13.72846794128418, 170.14166259765625], "min" : [-14.98737907409668, -1.5943390130996704, -19.18642234802246], "name" : "POSITION"}, {"bufferView" : 6, "byteOffset" : 12, "componentType" : 5126, "count" : 240, "type" : "VEC2", "max" : [1, -1], "min" : [0, -2], "name" : "TEXCOORD_0"}, {"bufferView" : 6, "byteOffset" : 20, "componentType" : 5126, "count" : 240, "type" : "VEC3", "max" : [0.9104697704315186, 1.0000044107437134, 0.9105997681617737], "min" : [-0.9105997681617737, -1.0000044107437134, -0.9104697704315186], "name" : "NORMAL"}, {"bufferView" : 0, "byteOffset" : 98400, "componentType" : 5123, "count" : 18, "type" : "SCALAR", "max" : [14], "min" : [0]}, {"bufferView" : 7, "byteOffset" : 0, "componentType" : 5126, "count" : 15, "type" : "VEC3", "max" : [170.12986755371094, 9.758816719055176, 84.99568176269531], "min" : [110.12532043457031, 0.032905999571084976, 79.95087432861328], "name" : "POSITION"}, {"bufferView" : 7, "byteOffset" : 12, "componentType" : 5126, "count" : 15, "type" : "VEC2", "max" : [1.043900966644287, -1.094573974609375], "min" : [-0.5260760188102722, -1.75], "name" : "TEXCOORD_0"}, {"bufferView" : 7, "byteOffset" : 20, "componentType" : 5126, "count" : 15, "type" : "VEC3", "max" : [-0.4126894176006317, -0, 0.9108766317367554], "min" : [-0.4126894176006317, -0, 0.9108766317367554], "name" : "NORMAL"}, {"bufferView" : 0, "byteOffset" : 98436, "componentType" : 5123, "count" : 8352, "type" : "SCALAR", "max" : [7549], "min" : [0]}, {"bufferView" : 8, "byteOffset" : 0, "componentType" : 5126, "count" : 7550, "type" : "VEC3", "max" : [187.698974609375, 2.68799090385437, 92.25041198730469], "min" : [108.97601318359375, 2.405447006225586, 61.49159240722656], "name" : "POSITION"}, {"bufferView" : 8, "byteOffset" : 12, "componentType" : 5126, "count" : 7550, "type" : "VEC2", "max" : [9.388310432434082, 8.388310432434082], "min" : [-15.884749412536621, -10.388310432434082], "name" : "TEXCOORD_0"}, {"bufferView" : 8, "byteOffset" : 20, "componentType" : 5126, "count" : 7550, "type" : "VEC3", "max" : [0.998900294303894, 0.9999789595603943, 0.9993558526039124], "min" : [-0.9995067715644836, -0.9999789595603943, -0.9999841451644897], "name" : "NORMAL"}, {"bufferView" : 0, "byteOffset" : 115140, "componentType" : 5123, "count" : 1998, "type" : "SCALAR", "max" : [1906], "min" : [0]}, {"bufferView" : 9, "byteOffset" : 0, "componentType" : 5126, "count" : 1907, "type" : "VEC3", "max" : [189.89833068847656, 5.9202141761779785, 86.00626373291016], "min" : [187.56936645507812, 1.3085780143737793, 83.81588745117188], "name" : "POSITION"}, {"bufferView" : 9, "byteOffset" : 12, "componentType" : 5126, "count" : 1907, "type" : "VEC2", "max" : [16.37421226501465, -2], "min" : [0, -18.37421226501465], "name" : "TEXCOORD_0"}, {"bufferView" : 9, "byteOffset" : 20, "componentType" : 5126, "count" : 1907, "type" : "VEC3", "max" : [0.9984607100486755, 0.9967086315155029, 0.9977777004241943], "min" : [-0.9986536502838135, -0.9967993497848511, -0.9979562163352966], "name" : "NORMAL"}, {"bufferView" : 0, "byteOffset" : 119136, "componentType" : 5123, "count" : 240, "type" : "SCALAR", "max" : [238], "min" : [0]}, {"bufferView" : 10, "byteOffset" : 0, "componentType" : 5126, "count" : 239, "type" : "VEC3", "max" : [339.6255187988281, 11.040923118591309, -50.938926696777344], "min" : [338.8853454589844, 10.303302764892578, -51.616233825683594], "name" : "POSITION"}, {"bufferView" : 10, "byteOffset" : 12, "componentType" : 5126, "count" : 239, "type" : "VEC2", "max" : [0.4212549924850464, -0.4212549924850464], "min" : [0.4212549924850464, -0.4212549924850464], "name" : "TEXCOORD_0"}, {"bufferView" : 10, "byteOffset" : 20, "componentType" : 5126, "count" : 239, "type" : "VEC3", "max" : [0.9783234000205994, 0.8792083263397217, 0.9913099408149719], "min" : [-0.999093770980835, -0.9929506778717041, -0.9970058798789978], "name" : "NORMAL"}], "asset" : {"generator" : "Aspose.3D 22.12", "version" : "2.0"}, "buffers" : [{"uri" : "data:application/octet-stream;base64,", "byteLength" : 2033420}], "bufferViews" : [{"buffer" : 0, "byteOffset" : 0, "byteLength" : 119616, "target" : 34963}, {"buffer" : 0, "byteOffset" : 119620, "byteLength" : 192, "byteStride" : 32, "target" : 34962}, {"buffer" : 0, "byteOffset" : 119816, "byteLength" : 288, "byteStride" : 32, "target" : 34962}, {"buffer" : 0, "byteOffset" : 120108, "byteLength" : 3264, "byteStride" : 32, "target" : 34962}, {"buffer" : 0, "byteOffset" : 123376, "byteLength" : 411168, "byteStride" : 32, "target" : 34962}, {"buffer" : 0, "byteOffset" : 534548, "byteLength" : 1150176, "byteStride" : 32, "target" : 34962}, {"buffer" : 0, "byteOffset" : 1684728, "byteLength" : 9216, "byteStride" : 32, "target" : 34962}, {"buffer" : 0, "byteOffset" : 1693948, "byteLength" : 576, "byteStride" : 32, "target" : 34962}, {"buffer" : 0, "byteOffset" : 1694528, "byteLength" : 267264, "byteStride" : 32, "target" : 34962}, {"buffer" : 0, "byteOffset" : 1961796, "byteLength" : 63936, "byteStride" : 32, "target" : 34962}, {"buffer" : 0, "byteOffset" : 2025736, "byteLength" : 7680, "byteStride" : 32, "target" : 34962}], "images" : [{"uri" : "data:image/jpeg;base64,"}, {"uri" : "data:image/jpeg;base64,"}, {"uri" : "data:image/png;base64,"}, {"uri" : "data:image/jpeg;base64,"}, {"uri" : "data:image/png;base64,"}, {"uri" : "data:image/png;base64,"}, {"uri" : "data:image/png;base64,"}], "materials" : [{"name" : "Material.002", "pbrMetallicRoughness" : {"baseColorFactor" : [0.8, 0.8, 0.8, 1], "baseColorTexture" : {"index" : 0, "texCoord" : 0}, "metallicFactor" : 0, "roughnessFactor" : 0}, "emissiveFactor" : [0, 0, 0], "alphaMode" : "OPAQUE", "doubleSided" : false}, {"name" : "Material.001", "pbrMetallicRoughness" : {"baseColorFactor" : [0.8, 0.8, 0.8, 1], "baseColorTexture" : {"index" : 1, "texCoord" : 0}, "metallicFactor" : 0, "roughnessFactor" : 0}, "emissiveFactor" : [0, 0, 0], "alphaMode" : "OPAQUE", "doubleSided" : false}, {"name" : "Material.007", "pbrMetallicRoughness" : {"baseColorFactor" : [0.8, 0.8, 0.8, 1], "baseColorTexture" : {"index" : 2, "texCoord" : 0}, "metallicFactor" : 0, "roughnessFactor" : 0}, "emissiveFactor" : [0, 0, 0], "alphaMode" : "OPAQUE", "doubleSided" : false}, {"name" : "Material.002", "pbrMetallicRoughness" : {"baseColorFactor" : [0.8, 0.8, 0.8, 1], "baseColorTexture" : {"index" : 0, "texCoord" : 0}, "metallicFactor" : 0, "roughnessFactor" : 0}, "emissiveFactor" : [0, 0, 0], "alphaMode" : "OPAQUE", "doubleSided" : false}, {"name" : "Material.001", "pbrMetallicRoughness" : {"baseColorFactor" : [0.8, 0.8, 0.8, 1], "baseColorTexture" : {"index" : 1, "texCoord" : 0}, "metallicFactor" : 0, "roughnessFactor" : 0}, "emissiveFactor" : [0, 0, 0], "alphaMode" : "OPAQUE", "doubleSided" : false}, {"name" : "Material.006", "pbrMetallicRoughness" : {"baseColorFactor" : [0.8, 0.8, 0.8, 1], "baseColorTexture" : {"index" : 3, "texCoord" : 0}, "metallicFactor" : 0, "roughnessFactor" : 0}, "emissiveFactor" : [0, 0, 0], "alphaMode" : "OPAQUE", "doubleSided" : false}, {"name" : "Material.004", "pbrMetallicRoughness" : {"baseColorFactor" : [0.8, 0.8, 0.8, 1], "baseColorTexture" : {"index" : 4, "texCoord" : 0}, "metallicFactor" : 0, "roughnessFactor" : 0}, "emissiveFactor" : [0, 0, 0], "alphaMode" : "OPAQUE", "doubleSided" : false}, {"name" : "Material.009", "pbrMetallicRoughness" : {"baseColorFactor" : [0.8, 0.8, 0.8, 1], "baseColorTexture" : {"index" : 5, "texCoord" : 0}, "metallicFactor" : 0, "roughnessFactor" : 0}, "emissiveFactor" : [0, 0, 0], "alphaMode" : "OPAQUE", "doubleSided" : false}, {"name" : "Material.005", "pbrMetallicRoughness" : {"baseColorFactor" : [0.8, 0.8, 0.8, 1], "baseColorTexture" : {"index" : 6, "texCoord" : 0}, "metallicFactor" : 0, "roughnessFactor" : 0}, "emissiveFactor" : [0, 0, 0], "alphaMode" : "OPAQUE", "doubleSided" : false}, {"name" : "Material.004", "pbrMetallicRoughness" : {"baseColorFactor" : [0.8, 0.8, 0.8, 1], "baseColorTexture" : {"index" : 4, "texCoord" : 0}, "metallicFactor" : 0, "roughnessFactor" : 0}, "emissiveFactor" : [0, 0, 0], "alphaMode" : "OPAQUE", "doubleSided" : false}], "meshes" : [{"primitives" : [{"attributes" : {"POSITION" : 1, "TEXCOORD_0" : 2, "NORMAL" : 3}, "indices" : 0, "material" : 0, "mode" : 4}], "name" : ""}, {"primitives" : [{"attributes" : {"POSITION" : 5, "TEXCOORD_0" : 6, "NORMAL" : 7}, "indices" : 4, "material" : 1, "mode" : 4}], "name" : ""}, {"primitives" : [{"attributes" : {"POSITION" : 9, "TEXCOORD_0" : 10, "NORMAL" : 11}, "indices" : 8, "material" : 2, "mode" : 4}, {"attributes" : {"POSITION" : 13, "TEXCOORD_0" : 14, "NORMAL" : 15}, "indices" : 12, "material" : 3, "mode" : 4}, {"attributes" : {"POSITION" : 17, "TEXCOORD_0" : 18, "NORMAL" : 19}, "indices" : 16, "material" : 4, "mode" : 4}, {"attributes" : {"POSITION" : 21, "TEXCOORD_0" : 22, "NORMAL" : 23}, "indices" : 20, "material" : 5, "mode" : 4}, {"attributes" : {"POSITION" : 25, "TEXCOORD_0" : 26, "NORMAL" : 27}, "indices" : 24, "material" : 6, "mode" : 4}, {"attributes" : {"POSITION" : 29, "TEXCOORD_0" : 30, "NORMAL" : 31}, "indices" : 28, "material" : 7, "mode" : 4}, {"attributes" : {"POSITION" : 33, "TEXCOORD_0" : 34, "NORMAL" : 35}, "indices" : 32, "material" : 8, "mode" : 4}], "name" : ""}, {"primitives" : [{"attributes" : {"POSITION" : 37, "TEXCOORD_0" : 38, "NORMAL" : 39}, "indices" : 36, "material" : 9, "mode" : 4}], "name" : ""}], "nodes" : [{"mesh" : 0, "name" : "building_008.014"}, {"mesh" : 1, "name" : "building_042.014"}, {"mesh" : 2, "name" : "building_134.005"}, {"mesh" : 3, "name" : "bush.005"}], "samplers" : [{"magFilter" : 9729, "minFilter" : 9729, "wrapS" : 10497, "wrapT" : 10497}, {"magFilter" : 9729, "minFilter" : 9729, "wrapS" : 10497, "wrapT" : 10497}, {"magFilter" : 9729, "minFilter" : 9729, "wrapS" : 10497, "wrapT" : 10497}, {"magFilter" : 9729, "minFilter" : 9729, "wrapS" : 10497, "wrapT" : 10497}, {"magFilter" : 9729, "minFilter" : 9729, "wrapS" : 10497, "wrapT" : 10497}, {"magFilter" : 9729, "minFilter" : 9729, "wrapS" : 10497, "wrapT" : 10497}, {"magFilter" : 9729, "minFilter" : 9729, "wrapS" : 10497, "wrapT" : 10497}], "scene" : 0, "scenes" : [{"nodes" : [0, 1, 2, 3]}], "textures" : [{"sampler" : 0, "source" : 0, "name" : ""}, {"sampler" : 1, "source" : 1, "name" : ""}, {"sampler" : 2, "source" : 2, "name" : ""}, {"sampler" : 3, "source" : 3, "name" : ""}, {"sampler" : 4, "source" : 4, "name" : ""}, {"sampler" : 5, "source" : 5, "name" : ""}, {"sampler" : 6, "source" : 6, "name" : ""}]}