{
    "asset" : {
        "generator" : "Khronos glTF Blender I/O v1.7.33",
        "version" : "2.0"
    },
    "scene" : 0,
    "scenes" : [
        {
            "name" : "Scene",
            "nodes" : [
                0,
                1
            ]
        }
    ],
    "nodes" : [
        {
            "mesh" : 0,
            "name" : "rectorat",
            "rotation" : [
                0,
                -0.2915080487728119,
                0,
                0.9565683603286743
            ],
            "scale" : [
                1.1116844415664673,
                1.1116843223571777,
                1.1116844415664673
            ],
            "translation" : [
                275.0303649902344,
                -13.400714874267578,
                268.0277404785156
            ]
        },
        {
            "mesh" : 1,
            "name" : "bush.005",
            "rotation" : [
                -0.0803433284163475,
                0.7025275230407715,
                -0.702527642250061,
                -0.08034331351518631
            ],
            "scale" : [
                0.2774175703525543,
                0.2774175703525543,
                0.2774175703525543
            ],
            "translation" : [
                -287.0075378417969,
                10.3316068649292,
                187.98385620117188
            ]
        }
    ],
    "materials" : [
        {
            "doubleSided" : true,
            "name" : "wall",
            "pbrMetallicRoughness" : {
                "baseColorTexture" : {
                    "index" : 0
                },
                "metallicFactor" : 0,
                "roughnessFactor" : 0.5
            }
        }
    ],
    "meshes" : [
        {
            "name" : "map.osm_buildings.004",
            "primitives" : [
                {
                    "attributes" : {
                        "POSITION" : 0,
                        "NORMAL" : 1,
                        "TEXCOORD_0" : 2
                    },
                    "indices" : 3,
                    "material" : 0
                }
            ]
        },
        {
            "name" : "NatureFreePack1.017",
            "primitives" : [
                {
                    "attributes" : {
                        "POSITION" : 4,
                        "NORMAL" : 5,
                        "TEXCOORD_0" : 6
                    },
                    "indices" : 7,
                    "material" : 0
                }
            ]
        }
    ],
    "textures" : [
        {
            "sampler" : 0,
            "source" : 0
        }
    ],
    "images" : [
        {
            "bufferView" : 4,
            "mimeType" : "image/png",
            "name" : "usthb_pallette"
        }
    ],
    "accessors" : [
        {
            "bufferView" : 0,
            "componentType" : 5126,
            "count" : 13381,
            "max" : [
                -300.9187927246094,
                27.827852249145508,
                23.18701171875
            ],
            "min" : [
                -404.6346435546875,
                10.015978813171387,
                -103.63997650146484
            ],
            "type" : "VEC3"
        },
        {
            "bufferView" : 1,
            "componentType" : 5126,
            "count" : 13381,
            "type" : "VEC3"
        },
        {
            "bufferView" : 2,
            "componentType" : 5126,
            "count" : 13381,
            "type" : "VEC2"
        },
        {
            "bufferView" : 3,
            "componentType" : 5123,
            "count" : 21960,
            "type" : "SCALAR"
        },
        {
            "bufferView" : 5,
            "componentType" : 5126,
            "count" : 238,
            "max" : [
                1.1627452373504639,
                1.1926929950714111,
                0.10180791467428207
            ],
            "min" : [
                -1.3992538452148438,
                -1.456597924232483,
                -2.5570731163024902
            ],
            "type" : "VEC3"
        },
        {
            "bufferView" : 6,
            "componentType" : 5126,
            "count" : 238,
            "type" : "VEC3"
        },
        {
            "bufferView" : 7,
            "componentType" : 5126,
            "count" : 238,
            "type" : "VEC2"
        },
        {
            "bufferView" : 8,
            "componentType" : 5123,
            "count" : 240,
            "type" : "SCALAR"
        }
    ],
    "bufferViews" : [
        {
            "buffer" : 0,
            "byteLength" : 160572,
            "byteOffset" : 0
        },
        {
            "buffer" : 0,
            "byteLength" : 160572,
            "byteOffset" : 160572
        },
        {
            "buffer" : 0,
            "byteLength" : 107048,
            "byteOffset" : 321144
        },
        {
            "buffer" : 0,
            "byteLength" : 43920,
            "byteOffset" : 428192
        },
        {
            "buffer" : 0,
            "byteLength" : 218,
            "byteOffset" : 472112
        },
        {
            "buffer" : 0,
            "byteLength" : 2856,
            "byteOffset" : 472332
        },
        {
            "buffer" : 0,
            "byteLength" : 2856,
            "byteOffset" : 475188
        },
        {
            "buffer" : 0,
            "byteLength" : 1904,
            "byteOffset" : 478044
        },
        {
            "buffer" : 0,
            "byteLength" : 480,
            "byteOffset" : 479948
        }
    ],
    "samplers" : [
        {
            "magFilter" : 9728,
            "minFilter" : 9984
        }
    ],
    "buffers" : [
        {
            "byteLength" : 480428,
            "uri" : "data:application/octet-stream;base64,"
        }
    ]
}
