{"accessors" : [{"bufferView" : 0, "byteOffset" : 0, "componentType" : 5123, "count" : 21960, "type" : "SCALAR", "max" : [19321], "min" : [0]}, {"bufferView" : 1, "byteOffset" : 0, "componentType" : 5126, "count" : 19322, "type" : "VEC3", "max" : [-2.9669189453125, 17.535072326660156, 81.94783020019531], "min" : [-48.142059326171875, -2.266108989715576, -57.5596923828125], "name" : "POSITION"}, {"bufferView" : 1, "byteOffset" : 12, "componentType" : 5126, "count" : 19322, "type" : "VEC2", "max" : [0.7624830007553101, -0.04065399989485741], "min" : [0.08658900111913681, -0.9199740290641785], "name" : "TEXCOORD_0"}, {"bufferView" : 1, "byteOffset" : 20, "componentType" : 5126, "count" : 19322, "type" : "VEC3", "max" : [1.0000044107437134, 1.0000044107437134, 1.0000044107437134], "min" : [-1.0000044107437134, -1.0000044107437134, -1.0000044107437134], "name" : "NORMAL"}, {"bufferView" : 0, "byteOffset" : 43920, "componentType" : 5123, "count" : 240, "type" : "SCALAR", "max" : [238], "min" : [0]}, {"bufferView" : 2, "byteOffset" : 0, "componentType" : 5126, "count" : 239, "type" : "VEC3", "max" : [-286.59722900390625, 11.040984153747559, 188.42251586914062], "min" : [-287.32281494140625, 10.303363800048828, 187.65512084960938], "name" : "POSITION"}, {"bufferView" : 2, "byteOffset" : 12, "componentType" : 5126, "count" : 239, "type" : "VEC2", "max" : [0.4212549924850464, -0.4212549924850464], "min" : [0.4212549924850464, -0.4212549924850464], "name" : "TEXCOORD_0"}, {"bufferView" : 2, "byteOffset" : 20, "componentType" : 5126, "count" : 239, "type" : "VEC3", "max" : [0.9725858569145203, 0.8792294263839722, 0.9484357237815857], "min" : [-0.9762117862701416, -0.9929615259170532, -0.9912258982658386], "name" : "NORMAL"}], "asset" : {"generator" : "Aspose.3D 22.12", "version" : "2.0"}, "buffers" : [{"uri" : "data:application/octet-stream;base64,", "byteLength" : 754812}], "bufferViews" : [{"buffer" : 0, "byteOffset" : 0, "byteLength" : 44400, "target" : 34963}, {"buffer" : 0, "byteOffset" : 44404, "byteLength" : 702720, "byteStride" : 32, "target" : 34962}, {"buffer" : 0, "byteOffset" : 747128, "byteLength" : 7680, "byteStride" : 32, "target" : 34962}], "meshes" : [{"primitives" : [{"attributes" : {"POSITION" : 1, "TEXCOORD_0" : 2, "NORMAL" : 3}, "indices" : 0, "mode" : 4}], "name" : ""}, {"primitives" : [{"attributes" : {"POSITION" : 5, "TEXCOORD_0" : 6, "NORMAL" : 7}, "indices" : 4, "mode" : 4}], "name" : ""}], "nodes" : [{"mesh" : 0, "name" : "rectorat"}, {"mesh" : 1, "name" : "bush.005"}], "scene" : 0, "scenes" : [{"nodes" : [0, 1]}]}